<svg xmlns="http://www.w3.org/2000/svg" viewBox="0 0 100 100">
  <g transform="translate(50,50)" fill="#CC5533">
    <rect x="-4.5" y="-46" width="9" height="40" rx="4.5" transform="rotate(0)"/>
    <rect x="-4.2" y="-43" width="8.4" height="37" rx="4.2" transform="rotate(30)"/>
    <rect x="-4.5" y="-46" width="9" height="40" rx="4.5" transform="rotate(60)"/>
    <rect x="-4.2" y="-43" width="8.4" height="37" rx="4.2" transform="rotate(90)"/>
    <rect x="-4.5" y="-46" width="9" height="40" rx="4.5" transform="rotate(120)"/>
    <rect x="-4.2" y="-43" width="8.4" height="37" rx="4.2" transform="rotate(150)"/>
    <rect x="-4.5" y="-46" width="9" height="40" rx="4.5" transform="rotate(180)"/>
    <rect x="-4.2" y="-43" width="8.4" height="37" rx="4.2" transform="rotate(210)"/>
    <rect x="-4.5" y="-46" width="9" height="40" rx="4.5" transform="rotate(240)"/>
    <rect x="-4.2" y="-43" width="8.4" height="37" rx="4.2" transform="rotate(270)"/>
    <rect x="-4.5" y="-46" width="9" height="40" rx="4.5" transform="rotate(300)"/>
    <rect x="-4.2" y="-43" width="8.4" height="37" rx="4.2" transform="rotate(330)"/>
  </g>
</svg>
