<svg xmlns="http://www.w3.org/2000/svg" viewBox="0 0 287.56 191.06">
  <defs>
    <linearGradient id="a" x1="62.34" y1="101.45" x2="149.66" y2="21.38" gradientUnits="userSpaceOnUse">
      <stop offset="0" stop-color="#0064e1"/>
      <stop offset=".4" stop-color="#0064e1"/>
      <stop offset=".83" stop-color="#0073ee"/>
      <stop offset="1" stop-color="#0082fb"/>
    </linearGradient>
    <linearGradient id="b" x1="50.52" y1="115.3" x2="96.63" y2="234.68" gradientUnits="userSpaceOnUse">
      <stop offset="0" stop-color="#0082fb"/>
      <stop offset="1" stop-color="#0064e0"/>
    </linearGradient>
  </defs>
  <path d="M31.06 126.96c0 11.44 2.71 20.32 6.25 25.83 4.68 7.31 11.72 10.84 20.8 10.84 11.08 0 21.25-2.73 40.62-29.61 15.5-21.35 33.76-51.28 46.05-69.89l20.78-31.99c14.4-22.17 31.04-46.79 50.21-63.16C230.09 2.65 247.45 0 256.5 0c32.39 0 51.5 20.94 51.5 58.64 0 20.58-3.95 34.11-10.65 45.26-5.62 9.36-15.37 18.07-29.88 18.07-12.56 0-25.27-8.21-33.05-18.52a122.52 122.52 0 00-8.27-10.01c0-5.55 1.74-14.42 6.22-21.16 4.34-6.53 10.32-10.6 17.24-10.6 2.77 0 5.11.77 6.95 2.28L256 64c-3.47-5.77-8.42-8.9-14.44-8.9-14.91 0-24.38 17.72-24.38 38.92 0 18.62 4.95 33.27 15.38 41.12 4.97 3.73 10.78 5.62 16.91 5.62 12.69 0 22.88-7.54 28.97-21.23 5.51-12.36 6.7-27.08 6.7-38.17 0-56.39-29.5-74.52-55.73-74.52-31.39 0-57.22 31.25-72.84 55.41L140.3 79.28c-20.26 31.44-37.05 59.25-47.13 74.8C75.83 180.42 58.96 191 41.83 191c-26.41 0-53.83-20.61-53.83-64.04 0-19.23 3.6-34.44 9.69-46.5C3.64 69.14 12.83 60 27 60c13.23 0 25.1 8.58 34.65 23.9-3.5 5.46-6.94 12.38-10.15 20.52-2.88 7.27-5.53 15.28-7.65 24.12C40.97 141.69 36 158.17 31.06 127z" fill="url(#a)"/>
  <path d="M254.5 0c32.39 0 51.5 20.94 51.5 58.64 0 20.58-3.95 34.11-10.65 45.26-5.62 9.36-15.37 18.07-29.88 18.07-12.56 0-25.27-8.21-33.05-18.52-2.74-3.73-5.57-7.22-8.27-10.01 0-5.55 1.74-14.42 6.22-21.16 4.34-6.53 10.32-10.6 17.24-10.6 2.77 0 5.11.77 6.95 2.28L256 64c-3.47-5.77-8.42-8.9-14.44-8.9-14.91 0-24.38 17.72-24.38 38.92 0 18.62 4.95 33.27 15.38 41.12 4.97 3.73 10.78 5.62 16.91 5.62 12.69 0 22.88-7.54 28.97-21.23 5.51-12.36 6.7-27.08 6.7-38.17 0-56.39-29.5-74.52-55.73-74.52-31.39 0-57.22 31.25-72.84 55.41l-3.27 5.04C169.9 41.84 196.65 0 254.5 0z" fill="url(#b)"/>
</svg>
